HIERARCHY
ROOT Hips
{
	OFFSET -3.958830 18.904000 13.208200
	CHANNELS 6 Xposition Yposition Zposition Zrotation Yrotation Xrotation 
	JOINT LHipJoint
	{
		OFFSET 0.000000 0.000000 0.000000
		CHANNELS 3 Zrotation Yrotation Xrotation
		JOINT LeftUpLeg
		{
			OFFSET 1.800000 -1.400000 0.085000
			CHANNELS 3 Zrotation Yrotation Xrotation
			JOINT LeftLeg
			{
				OFFSET 2.215000 -6.000000 0.000000
				CHANNELS 3 Zrotation Yrotation Xrotation
				JOINT LeftFoot
				{
					OFFSET 2.500000 -6.900000 0.000000
					CHANNELS 3 Zrotation Yrotation Xrotation
					JOINT LeftToeBase
					{
						OFFSET 0.200000 -0.500000 1.950000
						CHANNELS 3 Zrotation Yrotation Xrotation
						End Site
						{
							OFFSET 0.000000 0.000000 0.000000
						}
					}
				}
			}
		}
	}
	JOINT RHipJoint
	{
		OFFSET 0.000000 0.000000 0.000000
		CHANNELS 3 Zrotation Yrotation Xrotation
		JOINT RightUpLeg
		{
			OFFSET -1.800000 -1.400000 0.085000
			CHANNELS 3 Zrotation Yrotation Xrotation
			JOINT RightLeg
			{
				OFFSET -2.215000 -6.000000 0.000000
				CHANNELS 3 Zrotation Yrotation Xrotation
				JOINT RightFoot
				{
					OFFSET -2.500000 -6.900000 0.000000
					CHANNELS 3 Zrotation Yrotation Xrotation
					JOINT RightToeBase
					{
						OFFSET -0.200000 -0.500000 1.950000
						CHANNELS 3 Zrotation Yrotation Xrotation
						End Site
						{
							OFFSET 0.000000 0.000000 0.000000
						}
					}
				}
			}
		}
	}
	JOINT LowerBack
	{
		OFFSET 0.000000 0.000000 0.000000
		CHANNELS 3 Zrotation Yrotation Xrotation
		JOINT Spine
		{
			OFFSET -0.087000 1.940000 -0.288900
			CHANNELS 3 Zrotation Yrotation Xrotation
			JOINT Spine1
			{
				OFFSET 0.000000 1.950000 0.060000
				CHANNELS 3 Zrotation Yrotation Xrotation
				JOINT Neck
				{
					OFFSET 0.000000 0.000000 0.000000
					CHANNELS 3 Zrotation Yrotation Xrotation
					JOINT Neck1
					{
						OFFSET 0.000000 1.600000 0.340000
						CHANNELS 3 Zrotation Yrotation Xrotation
						JOINT Head
						{
							OFFSET 0.000000 1.667000 -0.240000
							CHANNELS 3 Zrotation Yrotation Xrotation
							End Site
							{
								OFFSET 0.000000 0.000000 0.000000
							}
						}
					}
				}
				JOINT LeftShoulder
				{
					OFFSET 0.000000 0.000000 0.000000
					CHANNELS 3 Zrotation Yrotation Xrotation
					JOINT LeftArm
					{
						OFFSET 2.700000 1.550000 -0.730000
						CHANNELS 3 Zrotation Yrotation Xrotation
						JOINT LeftForeArm
						{
							OFFSET 5.450000 0.000000 0.000000
							CHANNELS 3 Zrotation Yrotation Xrotation
							JOINT LeftHand
							{
								OFFSET 3.450000 0.000000 0.000000
								CHANNELS 3 Zrotation Yrotation Xrotation
								JOINT LeftHandIndex1
								{
									OFFSET 0.750000 0.000000 0.000000
									CHANNELS 3 Zrotation Yrotation Xrotation
									End Site
									{
										OFFSET 0.000000 0.000000 0.000000
									}
								}
							}
						}
					}
				}
				JOINT RightShoulder
				{
					OFFSET 0.000000 0.000000 0.000000
					CHANNELS 3 Zrotation Yrotation Xrotation
					JOINT RightArm
					{
						OFFSET -2.700000 1.550000 -0.730000
						CHANNELS 3 Zrotation Yrotation Xrotation
						JOINT RightForeArm
						{
							OFFSET -5.450000 0.000000 0.000000
							CHANNELS 3 Zrotation Yrotation Xrotation
							JOINT RightHand
							{
								OFFSET -3.450000 0.000000 0.000000
								CHANNELS 3 Zrotation Yrotation Xrotation
								JOINT RightHandIndex1
								{
									OFFSET -0.750000 0.000000 0.000000
									CHANNELS 3 Zrotation Yrotation Xrotation
									End Site
									{
										OFFSET 0.000000 0.000000 0.000000
									}
								}
							}
						}
					}
				}
			}
		}
	}
}
MOTION
Frames: 13
Frame Time: 0.016667
2.375090 16.351900 -1.125510 -3.236656 6.864649 3.359998 -14.823019 10.578911 2.549265 12.560094 1.073327 -36.225130 0.941128 6.540724 24.037833 -0.276282 4.229696 2.930205 0.186480 0.158260 -0.074580 18.745660 -11.652964 3.369301 -28.488898 5.368540 2.663884 10.263831 -5.781590 1.994666 -0.392745 -6.303865 2.181210 0.268060 0.260560 0.012640 -4.836563 4.593708 -7.054813 7.145572 16.233687 6.137071 1.950767 17.143048 12.398840 5.319227 2.234355 -10.354434 6.248434 -17.687318 22.230378 2.030140 -17.879910 -6.453380 -20.151089 -3.821736 8.129171 -63.174992 4.616127 -1.013595 -125.168913 -64.684675 89.243997 -3.720061 3.485368 -0.119150 0.153190 -0.252010 0.132280 10.086328 10.822937 3.940805 13.277533 16.478908 -6.647293 -39.452461 25.854493 -9.253471 2.352904 -1.781371 -0.079330 0.204940 0.040470 0.070360 
2.284690 16.357500 -1.153000 -3.773473 6.312235 3.294426 -14.803778 10.624056 2.487365 13.615752 1.118242 -35.119130 1.304948 5.915931 21.404133 -0.292072 3.883852 3.074042 0.148050 0.107080 -0.092650 18.760151 -11.674376 3.402679 -27.336399 4.708554 1.028237 12.019265 -5.845715 2.153725 -0.354568 -6.192963 2.222592 0.234910 0.275560 0.016250 -4.890718 4.635091 -6.985489 7.388826 15.957625 6.005893 2.672246 16.766667 10.894133 4.900392 2.738065 -9.732748 7.220771 -18.766459 21.251391 1.462180 -18.627270 -5.285100 -18.824148 -0.150933 7.290380 -63.522508 8.842639 -1.800944 -124.017698 -62.046954 85.491742 -3.674926 3.628493 -0.135410 0.169330 -0.269300 0.126420 9.282286 6.434040 3.533003 14.739729 12.139701 -6.551745 -40.129013 27.905797 -9.643460 2.314985 -1.749325 -0.083060 0.195040 0.051770 0.074480 
2.180660 16.377030 -1.168150 -4.269559 4.572253 3.362929 -14.794077 10.835239 2.496068 15.198534 1.182974 -33.405616 1.311147 5.462375 18.673498 -0.290912 3.626057 3.170969 0.139800 0.095400 -0.096950 18.732606 -11.823689 3.217720 -26.321656 3.880837 -1.232721 11.727575 -6.022775 4.283494 -0.278961 -5.894111 2.315210 0.218440 0.267720 0.027110 -4.862613 4.481047 -6.876640 7.401998 15.204361 5.917938 3.565044 15.949914 9.082790 4.193262 2.784453 -8.682113 7.322225 -19.142606 20.419597 1.231110 -18.841430 -4.864630 -17.809841 3.968856 6.469362 -64.353615 12.852904 -2.360346 -126.299858 -59.880541 86.394853 -3.590582 3.751480 -0.146410 0.171520 -0.268100 0.125730 9.339994 1.881610 2.430069 17.403261 8.081804 -7.086765 -44.086249 33.455631 -12.142549 2.228577 -1.693611 -0.068660 0.170490 0.047620 0.078410 
2.057610 16.403950 -1.175450 -5.008931 1.910774 3.962159 -14.790550 11.023847 2.534309 17.352446 1.269976 -31.531771 1.255292 5.168364 16.111558 -0.252362 3.500220 3.220928 0.107790 0.053160 -0.103120 18.706660 -11.836905 3.131888 -25.087627 3.174028 -4.108022 12.237681 -6.047869 5.470428 -0.208353 -5.559414 2.425592 0.172450 0.253170 0.031470 -4.812846 4.202256 -6.867746 7.617425 14.115264 5.935602 4.273815 14.873296 6.277423 3.246712 2.480532 -7.431547 6.778118 -18.948496 19.802864 0.976300 -18.577130 -4.322700 -16.181400 9.218947 5.368257 -65.137951 18.049076 -4.206896 -125.548577 -58.538680 84.440776 -3.502697 3.831553 -0.147290 0.166940 -0.262910 0.115330 9.119643 -3.532037 1.193705 20.947592 2.829675 -8.120857 -49.667427 41.160023 -16.353177 2.133701 -1.575964 -0.057280 0.139930 0.046430 0.076470 
1.921610 16.422590 -1.179750 -5.676545 -1.737166 5.249589 -14.792045 11.099779 2.534908 19.661765 1.336783 -29.425636 1.108212 4.998878 13.858253 -0.211717 3.512469 3.232242 0.076950 0.014820 -0.112440 18.702056 -11.762800 3.127266 -23.948718 2.829107 -7.651113 13.285841 -5.925233 5.887696 -0.131615 -5.255053 2.521214 0.143270 0.261530 0.040250 -4.779241 4.060696 -6.822838 7.182250 13.341946 5.224644 4.847791 13.922791 3.617333 2.517342 2.666220 -6.548035 7.347078 -19.081074 18.178682 0.032510 -18.045610 -3.122400 -13.910286 13.740398 4.476593 -65.659261 22.984118 -6.651931 -124.120056 -58.108852 82.289534 -3.447127 3.901714 -0.171210 0.191080 -0.278470 0.112230 7.856810 -8.433827 0.378013 24.541434 -0.938238 -8.427862 -51.101371 41.767069 -16.816912 2.144509 -1.592667 -0.055160 0.114750 0.046400 0.075350 
1.769710 16.455130 -1.189380 -6.157552 -5.052970 6.133618 -14.809258 11.198570 2.506108 21.601222 1.266451 -26.921969 0.928559 4.866500 12.016062 -0.144189 3.552393 3.232111 0.046590 -0.025120 -0.114590 18.675800 -11.583606 3.250066 -22.911421 2.742883 -10.377548 15.535557 -5.893558 5.623101 -0.106657 -5.089181 2.573124 0.099420 0.248290 0.040670 -4.696021 3.754355 -6.896080 7.074548 12.135120 5.101076 4.946854 12.680795 0.911920 2.004800 2.919236 -5.804357 7.581174 -18.929328 18.157284 -0.618160 -17.680490 -1.855490 -11.931296 17.197746 3.780762 -63.752897 27.776882 -8.835401 -123.682451 -58.261373 82.211155 -3.367204 3.987942 -0.180390 0.189870 -0.275730 0.107540 6.584337 -12.321788 -0.236448 25.807718 -3.870998 -8.454133 -48.784431 41.198245 -15.203523 2.214098 -1.625934 -0.044770 0.083840 0.036280 0.075920 
1.593260 16.497120 -1.213030 -6.154417 -8.802813 6.802389 -14.847308 11.399960 2.507093 23.002171 0.984987 -24.608878 0.390934 4.943773 11.276659 -0.063411 3.677841 3.202954 0.004760 -0.077350 -0.142340 18.617713 -11.313866 3.392268 -22.569097 2.813835 -12.840991 17.831659 -5.941909 5.511397 -0.086935 -4.981261 2.609112 0.044980 0.249020 0.033670 -4.536038 3.084527 -7.074778 7.117695 10.121205 5.537264 4.850447 10.795934 -1.875160 1.231819 1.956090 -4.671857 5.391095 -17.315185 19.630824 -0.669600 -16.972920 -0.725830 -10.143663 20.694554 3.054923 -62.482109 32.480193 -11.813774 -122.795528 -60.905896 84.041944 -3.280223 4.033974 -0.183610 0.181920 -0.279540 0.108860 6.201177 -15.434534 -1.169745 24.274400 -6.255935 -8.348586 -44.695018 42.809912 -13.560030 2.274962 -1.638952 -0.038610 0.060080 0.035860 0.085290 
1.415640 16.524590 -1.236850 -6.069644 -12.458501 7.188142 -14.843154 11.581203 2.487223 23.978773 0.694187 -22.354513 0.587129 4.788258 10.161202 0.003247 3.733274 3.211398 -0.045150 -0.139740 -0.183380 18.595444 -11.146415 3.501102 -22.141242 2.880888 -14.666010 19.228448 -5.949106 5.510016 -0.062094 -4.892812 2.647693 -0.007420 0.270590 0.028290 -4.491021 2.592311 -7.225877 7.649009 8.339698 5.751383 4.028869 9.049610 -3.672867 0.534804 1.172902 -3.999116 3.616529 -15.958301 20.965760 -0.556240 -16.503800 0.852200 -8.931371 22.194392 2.839508 -59.188191 36.683008 -13.871939 -119.165250 -63.125917 82.183748 -3.248764 4.104490 -0.197170 0.187330 -0.298910 0.112020 6.302943 -16.852865 -1.418573 22.781387 -8.723890 -8.236578 -39.340172 42.071211 -11.020647 2.353293 -1.689387 -0.039220 0.042940 0.046400 0.099080 
1.242740 16.558370 -1.255390 -6.575790 -16.066459 7.534634 -14.836413 11.736507 2.577670 25.671957 0.519666 -20.358262 1.031929 4.681315 8.900304 0.073898 3.870519 3.175517 -0.086250 -0.195400 -0.204800 18.575163 -11.018886 3.521504 -21.260201 2.879112 -15.899092 19.957228 -6.041168 5.911736 -0.047387 -4.763235 2.703610 -0.059500 0.268750 0.022160 -4.455985 2.134074 -7.411698 9.056304 6.700765 6.101520 3.212381 7.571970 -5.212734 0.271302 0.416180 -3.908463 1.887499 -14.571422 22.540052 -0.450270 -15.760400 1.877610 -8.191009 22.778557 2.705313 -57.254566 38.499297 -15.179535 -115.242966 -66.999103 82.060049 -3.243314 4.018903 -0.181570 0.175140 -0.296240 0.106210 5.961988 -17.313475 -1.108626 21.948779 -10.892537 -8.218708 -37.226368 40.842394 -9.678513 2.420430 -1.707485 -0.041780 0.026770 0.054950 0.099030 
1.043120 16.591990 -1.286200 -7.012324 -20.007208 7.837327 -14.893120 11.942833 2.624645 27.199564 0.392551 -18.863162 1.369888 4.866643 9.407032 0.131377 4.060598 3.092964 -0.083100 -0.207130 -0.172720 18.501231 -10.834521 3.582226 -19.965492 2.884414 -16.787613 21.540168 -6.184530 5.984768 -0.080069 -4.672177 2.736523 -0.091320 0.216680 0.016570 -4.241844 1.551337 -7.595962 9.026139 5.732541 6.789051 2.972486 6.766261 -7.159983 0.377710 0.341492 -3.981044 1.206962 -13.674122 24.304908 -0.112230 -15.048880 1.800950 -7.745944 23.146401 2.338121 -53.669189 38.042428 -14.593904 -112.343652 -70.778366 83.869291 -3.249410 3.790985 -0.135470 0.131240 -0.256500 0.091610 5.388014 -17.887603 -0.566477 22.621229 -13.592581 -8.453951 -38.813208 37.715718 -9.036651 2.509977 -1.709380 -0.031470 0.004470 0.040520 0.079860 
0.818510 16.622880 -1.331810 -6.995068 -24.902893 8.158656 -14.985497 12.306561 2.697493 28.660759 0.281514 -17.796179 0.825918 5.631186 12.265434 0.199296 4.446669 2.941261 -0.112580 -0.254140 -0.179650 18.379973 -10.659958 3.593957 -18.499685 2.915376 -18.383238 22.284050 -6.426054 6.969285 -0.062115 -4.487807 2.808368 -0.137920 0.197980 0.001050 -3.872051 0.729009 -7.820836 8.016729 4.804706 8.032347 2.830680 6.048208 -10.254118 0.291709 -0.499016 -3.948643 -0.833401 -12.196068 26.350057 0.382820 -14.431240 2.564270 -7.395402 24.033472 1.881115 -48.699190 37.894861 -13.718077 -111.634624 -74.515856 88.906976 -3.266701 3.243144 -0.102020 0.100890 -0.244740 0.079560 5.414149 -18.312552 0.069306 21.053220 -17.542310 -7.974758 -39.926009 32.289843 -7.379495 2.667159 -1.736729 -0.036640 -0.007380 0.047360 0.071060 
0.589690 16.632790 -1.398900 -6.535058 -30.436855 8.272904 -15.037569 12.651618 2.822547 30.010447 0.271152 -17.412370 -0.643364 7.159766 17.490812 0.287626 5.134623 2.679193 -0.132610 -0.275200 -0.208480 18.305348 -10.549052 3.565333 -17.208389 3.059948 -20.655566 22.289283 -6.954543 9.360744 -0.029299 -4.315760 2.877261 -0.164570 0.207800 -0.016590 -3.631094 0.024354 -8.028585 7.205228 3.389279 9.511321 2.017253 4.759403 -13.827896 -0.170671 -1.914595 -3.489982 -3.619536 -9.292983 28.066720 1.936770 -12.987240 2.910840 -6.345943 25.608284 1.325035 -44.526013 38.267964 -11.790633 -100.484896 -81.520412 84.063839 -3.665070 0.847116 -0.079770 0.082180 -0.242700 0.086470 5.369097 -19.100373 0.320463 19.562532 -19.730976 -7.394088 -38.133652 29.934186 -5.881428 2.784835 -1.755830 -0.044610 -0.004010 0.053920 0.075860 
0.363410 16.645420 -1.486650 -5.736303 -35.723008 7.863473 -15.135560 12.817002 3.152649 31.577740 0.408994 -17.974971 -3.310563 9.774161 24.184876 0.446081 6.301230 2.240241 -0.136140 -0.278510 -0.212350 18.217096 -10.392343 3.468495 -15.834074 3.235376 -22.349988 21.702934 -7.431058 11.876618 -0.014659 -4.157818 2.939841 -0.187260 0.186610 -0.032680 -3.334088 -0.588306 -8.300933 5.827790 2.600743 11.344671 1.401962 3.930790 -16.003838 -0.085021 -3.224524 -4.373704 -6.483886 -6.796338 29.406665 3.175960 -11.690120 2.762010 -6.726818 26.146835 1.723479 -38.978014 35.990895 -8.572919 -48.347331 -88.065663 40.686374 -3.186492 4.543696 -0.045930 0.046170 -0.219660 0.085980 6.009223 -18.942815 0.469282 18.593124 -22.478025 -7.151931 -38.578734 28.914938 -5.312090 2.865046 -1.752618 -0.041320 -0.009330 0.048520 0.072940 
